<?xml version="1.0" encoding="UTF-8" standalone="no"?>
<!-- Created with Inkscape (http://www.inkscape.org/) -->

<svg
   width="120mm"
   height="120mm"
   viewBox="0 0 120 120"
   version="1.1"
   id="svg1"
   xml:space="preserve"
   inkscape:version="1.4 (86a8ad7, 2024-10-11)"
   sodipodi:docname="figma_full_color.svg"
   xmlns:inkscape="http://www.inkscape.org/namespaces/inkscape"
   xmlns:sodipodi="http://sodipodi.sourceforge.net/DTD/sodipodi-0.dtd"
   xmlns="http://www.w3.org/2000/svg"
   xmlns:svg="http://www.w3.org/2000/svg"><sodipodi:namedview
     id="namedview1"
     pagecolor="#ffffff"
     bordercolor="#000000"
     borderopacity="0.25"
     inkscape:showpageshadow="2"
     inkscape:pageopacity="0.0"
     inkscape:pagecheckerboard="0"
     inkscape:deskcolor="#d1d1d1"
     inkscape:document-units="mm"
     inkscape:zoom="0.98646753"
     inkscape:cx="62.343664"
     inkscape:cy="300.56742"
     inkscape:window-width="1920"
     inkscape:window-height="1001"
     inkscape:window-x="-9"
     inkscape:window-y="-9"
     inkscape:window-maximized="1"
     inkscape:current-layer="layer1" /><defs
     id="defs1" /><g
     inkscape:label="Calque 1"
     inkscape:groupmode="layer"
     id="layer1"><g
       style="fill:none"
       id="g1"
       transform="matrix(0.19145763,0,0,0.19145763,-38.026307,-62.532883)"><path
         d="m 312,840 c 0,-55.228 44.772,-100 100,-100 h 100 v 100 c 0,55.228 -44.772,100 -100,100 -55.228,0 -100,-44.772 -100,-100 z"
         fill="#24cb71"
         id="path1" /><path
         d="m 512,340 v 200 h 100 c 55.228,0 100,-44.772 100,-100 0,-55.228 -44.772,-100 -100,-100 z"
         fill="#ff7237"
         id="path2" /><circle
         cx="611.16699"
         cy="640"
         r="100"
         fill="#00b6ff"
         id="circle2" /><path
         d="m 312,440 c 0,55.228 44.772,100 100,100 H 512 V 340 H 412 c -55.228,0 -100,44.772 -100,100 z"
         fill="#ff3737"
         id="path3" /><path
         d="m 312,640 c 0,55.228 44.772,100 100,100 H 512 V 540 H 412 c -55.228,0 -100,44.772 -100,100 z"
         fill="#874fff"
         id="path4" /></g></g></svg>
