<?xml version="1.0" encoding="UTF-8" standalone="no"?>
<!-- Created with Inkscape (http://www.inkscape.org/) -->

<svg
   width="128mm"
   height="128mm"
   viewBox="0 0 128 128"
   version="1.1"
   id="svg1"
   xml:space="preserve"
   inkscape:version="1.4 (86a8ad7, 2024-10-11)"
   sodipodi:docname="css3.svg"
   xmlns:inkscape="http://www.inkscape.org/namespaces/inkscape"
   xmlns:sodipodi="http://sodipodi.sourceforge.net/DTD/sodipodi-0.dtd"
   xmlns="http://www.w3.org/2000/svg"
   xmlns:svg="http://www.w3.org/2000/svg"><sodipodi:namedview
     id="namedview1"
     pagecolor="#ffffff"
     bordercolor="#000000"
     borderopacity="0.25"
     inkscape:showpageshadow="2"
     inkscape:pageopacity="0.0"
     inkscape:pagecheckerboard="0"
     inkscape:deskcolor="#d1d1d1"
     inkscape:document-units="mm"
     inkscape:zoom="0.98646753"
     inkscape:cx="124.18047"
     inkscape:cy="191.08586"
     inkscape:window-width="1920"
     inkscape:window-height="1001"
     inkscape:window-x="-9"
     inkscape:window-y="-9"
     inkscape:window-maximized="1"
     inkscape:current-layer="layer1" /><defs
     id="defs1" /><g
     inkscape:label="Calque 1"
     inkscape:groupmode="layer"
     id="layer1"><g
       inkscape:label="Calque 1"
       id="layer1-5"
       style="display:inline"
       transform="matrix(1.0084425,0,0,1.0084425,-15.123337,-11.154978)"><g
         id="g3013"
         transform="matrix(0.24790704,0,0,0.24790704,14.996728,11.061592)"
         style="display:inline"><polygon
           id="polygon2989"
           points="404.321,470.819 255.778,512 107.644,470.877 74.633,100.62 437.367,100.62 "
           style="fill:#264de4" /><polygon
           id="polygon2991"
           points="376.03,447.246 404.27,130.894 256,130.894 256,480.523 "
           style="fill:#2965f1" /><polygon
           id="polygon2993"
           points="150.31,268.217 154.38,313.627 256,313.627 256,268.217 "
           style="fill:#ebebeb" /><polygon
           id="polygon2995"
           points="255.843,176.305 142.132,176.305 146.26,221.716 256,221.716 256,176.305 "
           style="fill:#ebebeb" /><polygon
           id="polygon2997"
           points="201.994,336.333 177.419,336.333 156.409,336.333 162.771,407.634 255.791,433.457 256,433.399 256,386.153 255.801,386.206 205.227,372.55 "
           style="fill:#ebebeb" /><path
           id="path2999"
           d="m 160,0 h 55 v 23 h -32 v 23 h 32 v 23 h -55 z"
           inkscape:connector-curvature="0" /><path
           id="path3001"
           d="m 226,0 h 55 v 20 h -32 v 4 h 32 V 70 H 226 V 49 h 32 v -4 h -32 z"
           inkscape:connector-curvature="0" /><path
           id="path3003"
           d="m 292,0 h 55 v 20 h -32 v 4 h 32 V 70 H 292 V 49 h 32 v -4 h -32 z"
           inkscape:connector-curvature="0" /><polygon
           id="polygon3005"
           points="306.49,372.521 255.843,386.191 255.843,433.435 348.937,407.634 349.62,399.962 360.291,280.411 361.399,268.217 369.597,176.305 255.843,176.305 255.843,221.716 319.831,221.716 315.699,268.217 255.843,268.217 255.843,313.627 311.761,313.627 "
           style="fill:#ffffff" /></g><path
         style="fill:#ffffff;stroke-width:0.358403"
         d="M 153.03828,36.557155 V 4.6592452 h 25.26745 25.26744 V 15.232148 25.80505 h -14.69454 -14.69454 v 10.752105 10.752104 h 14.69454 14.69454 v 10.572902 10.572903 h -25.26744 -25.26745 z"
         id="path22"
         transform="matrix(0.26458333,0,0,0.26458333,14.377993,10.408729)" /><path
         style="fill:#ffffff;stroke-width:0.358403"
         d="m 214.32528,59.674179 v -9.497692 h 14.87374 14.87375 v -1.97122 -1.971219 H 229.19902 214.32528 V 25.446647 4.6592452 h 25.26744 25.26745 v 9.1392888 9.139288 h -14.87375 -14.87374 v 1.97122 1.971219 h 14.87374 14.87375 v 21.145805 21.145805 h -25.26745 -25.26744 z"
         id="path23"
         transform="matrix(0.26458333,0,0,0.26458333,14.377993,10.408729)" /><path
         style="fill:#ffffff;stroke-width:0.358403"
         d="m 275.25387,59.674179 v -9.497692 h 14.87374 14.87375 v -1.97122 -1.971219 H 290.12761 275.25387 V 25.446647 4.6592452 h 25.44665 25.44664 v 9.1392888 9.139288 h -14.87374 -14.87375 v 1.97122 1.971219 h 14.87375 14.87374 v 21.145805 21.145805 h -25.44664 -25.44665 z"
         id="path24"
         transform="matrix(0.26458333,0,0,0.26458333,14.377993,10.408729)" /></g></g></svg>
