<?xml version="1.0" encoding="UTF-8" standalone="no"?>
<!-- Created with Inkscape (http://www.inkscape.org/) -->

<svg
   version="1.1"
   id="svg1"
   width="2666.6667"
   height="1440"
   viewBox="0 0 2666.6667 1440"
   xmlns="http://www.w3.org/2000/svg"
   xmlns:svg="http://www.w3.org/2000/svg">
  <defs
     id="defs1">
    <clipPath
       clipPathUnits="userSpaceOnUse"
       id="clipPath1">
      <path
         d="M 0,1080 H 2000 V 0 H 0 Z"
         id="path1" />
    </clipPath>
    <clipPath
       clipPathUnits="userSpaceOnUse"
       id="clipPath3">
      <path
         d="M 0,1080 H 2000 V 0 H 0 Z"
         transform="matrix(1.3333333,0,0,-1.3333333,0,1440)"
         id="path3" />
    </clipPath>
    <clipPath
       clipPathUnits="userSpaceOnUse"
       id="clipPath5">
      <path
         d="M 0,1080 H 2000 V 0 H 0 Z"
         transform="translate(-923.4589,-226.32503)"
         id="path5" />
    </clipPath>
    <clipPath
       clipPathUnits="userSpaceOnUse"
       id="clipPath7">
      <path
         d="M 0,1080 H 2000 V 0 H 0 Z"
         transform="translate(-413.89401,-273.02363)"
         id="path7" />
    </clipPath>
    <clipPath
       clipPathUnits="userSpaceOnUse"
       id="clipPath9">
      <path
         d="M 0,1080 H 2000 V 0 H 0 Z"
         transform="translate(-569.55112,-356.35241)"
         id="path9" />
    </clipPath>
    <clipPath
       clipPathUnits="userSpaceOnUse"
       id="clipPath11">
      <path
         d="M 0,1080 H 2000 V 0 H 0 Z"
         transform="translate(-1118.9469,-393.90161)"
         id="path11" />
    </clipPath>
    <clipPath
       clipPathUnits="userSpaceOnUse"
       id="clipPath13">
      <path
         d="M 0,1080 H 2000 V 0 H 0 Z"
         transform="translate(-1264.0867,-289.97041)"
         id="path13" />
    </clipPath>
    <clipPath
       clipPathUnits="userSpaceOnUse"
       id="clipPath15">
      <path
         d="M 0,1080 H 2000 V 0 H 0 Z"
         transform="translate(-1599.6738,-206.18183)"
         id="path15" />
    </clipPath>
    <clipPath
       clipPathUnits="userSpaceOnUse"
       id="clipPath17">
      <path
         d="M 0,1080 H 2000 V 0 H 0 Z"
         transform="translate(-1738.1124,-206.18183)"
         id="path17" />
    </clipPath>
    <clipPath
       clipPathUnits="userSpaceOnUse"
       id="clipPath19">
      <path
         d="M 0,1080 H 2000 V 0 H 0 Z"
         transform="translate(-999.99992,-873.96962)"
         id="path19" />
    </clipPath>
    <clipPath
       clipPathUnits="userSpaceOnUse"
       id="clipPath21">
      <path
         d="M 0,1080 H 2000 V 0 H 0 Z"
         transform="translate(-1150.6666,-750.30822)"
         id="path21" />
    </clipPath>
  </defs>
  <g
     id="layer-MC0" />
  <g
     id="layer-MC1" />
  <g
     id="layer-MC2" />
  <g
     id="layer-MC3">
    <g
       opacity="0"
       id="g2"
       clip-path="url(#clipPath3)">
      <path
         d="M 2000,0 H 0 v 1080 h 2000 z"
         style="fill:#ffffff;fill-opacity:1;fill-rule:nonzero;stroke:none"
         transform="matrix(1.3333333,0,0,-1.3333333,0,1440)"
         clip-path="url(#clipPath1)"
         id="path2" />
    </g>
    <path
       id="path4"
       d="m 0,0 h -3.206 c -16.482,0 -18.77,4.12 -18.77,25.183 v 99.351 H 0 c 47.612,0 56.313,-34.792 56.313,-61.808 C 56.313,34.797 47.612,0 0,0 m -193.206,63.645 v 60.889 h 18.77 c 20.602,0 29.762,-14.19 29.762,-30.672 0,-16.027 -9.16,-30.217 -29.762,-30.217 z m 191.833,74.623 h -81.955 v -8.695 c 25.637,0 29.757,-5.494 29.757,-38.003 V 32.964 c 0,-32.505 -4.12,-38.458 -29.757,-38.458 -19.682,2.747 -32.963,13.28 -51.278,33.424 l -21.056,22.889 c 28.383,5.04 43.491,22.895 43.491,43.043 0,25.177 -21.515,44.406 -61.806,44.406 h -80.581 v -8.695 c 25.637,0 29.757,-5.494 29.757,-38.003 V 32.964 c 0,-32.505 -4.12,-38.458 -29.757,-38.458 v -8.696 h 91.109 v 8.696 c -25.637,0 -29.757,5.953 -29.757,38.458 v 16.482 h 7.782 l 50.818,-63.636 H -1.373 c 65.472,0 93.856,34.792 93.856,76.462 0,41.659 -28.384,75.996 -93.856,75.996"
       style="fill:#32373c;fill-opacity:1;fill-rule:nonzero;stroke:none"
       transform="matrix(1.3333333,0,0,-1.3333333,1231.2785,1138.2333)"
       clip-path="url(#clipPath5)" />
    <path
       id="path6"
       d="m 0,0 31.59,93.408 c 9.16,27.01 5.04,34.792 -24.263,34.792 v 9.16 h 86.075 v -9.16 c -28.843,0 -35.71,-6.868 -47.158,-40.291 L -5.954,-68.675 h -5.948 L -58.605,74.634 -106.217,-68.675 h -5.954 l -50.818,156.584 c -10.988,33.423 -18.315,40.291 -44.87,40.291 v 9.16 h 101.642 v -9.16 c -27.016,0 -34.342,-6.408 -24.723,-34.792 L -100.269,0 -54.025,137.36 h 8.7 z"
       style="fill:#32373c;fill-opacity:1;fill-rule:nonzero;stroke:none"
       transform="matrix(1.3333333,0,0,-1.3333333,551.85867,1075.9685)"
       clip-path="url(#clipPath7)" />
    <path
       id="path8"
       d="m 0,0 c -42.118,0 -56.772,-37.998 -56.772,-67.755 0,-30.223 14.654,-67.766 56.772,-67.766 42.583,0 57.232,37.543 57.232,67.766 C 57.232,-37.998 42.583,0 0,0 m 0,-150.171 c -50.359,0 -91.568,37.085 -91.568,82.416 0,44.865 41.209,81.955 91.568,81.955 50.365,0 91.569,-37.09 91.569,-81.955 0,-45.331 -41.204,-82.416 -91.569,-82.416"
       style="fill:#32373c;fill-opacity:1;fill-rule:nonzero;stroke:none"
       transform="matrix(1.3333333,0,0,-1.3333333,759.40147,964.86347)"
       clip-path="url(#clipPath9)" />
    <path
       id="path10"
       d="M 0,0 H -26.096 V -79.668 H 0 c 25.642,0 37.543,17.855 37.543,39.372 C 37.543,-18.32 25.642,0 0,0 m 10.074,-172.611 v -9.155 H -94.77 v 9.155 c 30.676,0 36.17,7.781 36.17,53.571 v 73.25 C -58.6,0 -64.094,7.322 -94.77,7.322 v 9.16 H 0 c 47.158,0 73.259,-24.269 73.259,-56.778 0,-31.591 -26.101,-56.313 -73.259,-56.313 h -26.096 v -22.431 c 0,-45.79 5.494,-53.571 36.17,-53.571"
       style="fill:#32373c;fill-opacity:1;fill-rule:nonzero;stroke:none"
       transform="matrix(1.3333333,0,0,-1.3333333,1491.9292,914.79787)"
       clip-path="url(#clipPath11)" />
    <path
       id="path12"
       d="m 0,0 v 60.888 h 18.769 c 20.602,0 29.762,-14.189 29.762,-30.671 C 48.531,14.19 39.371,0 18.769,0 Z m 242.645,-34.802 -2.287,-8.241 c -4.121,-15.109 -9.16,-20.602 -41.664,-20.602 h -6.413 c -23.803,0 -27.924,5.493 -27.924,38.003 v 21.057 c 35.711,0 38.457,-3.201 38.457,-27.011 h 8.701 v 68.221 h -8.701 c 0,-23.809 -2.746,-27.01 -38.457,-27.01 v 51.273 h 25.177 c 32.509,0 37.544,-5.494 41.664,-20.602 l 2.292,-8.695 h 7.322 l -3.201,43.032 H 103.005 v -8.695 c 25.637,0 29.757,-5.494 29.757,-38.004 v -58.606 c 0,-29.736 -3.502,-37.227 -23.714,-38.294 -19.212,2.932 -32.403,13.413 -50.448,33.26 l -21.062,22.89 c 28.389,5.04 43.497,22.895 43.497,43.043 0,25.177 -21.516,44.406 -61.807,44.406 h -80.58 v -8.695 c 25.636,0 29.756,-5.494 29.756,-38.004 v -58.606 c 0,-32.504 -4.12,-38.457 -29.756,-38.457 v -8.696 h 91.108 v 8.696 C 4.12,-69.139 0,-63.186 0,-30.682 V -14.2 H 7.781 L 58.6,-77.835 h 188.166 l 2.747,43.033 z"
       style="fill:#32373c;fill-opacity:1;fill-rule:nonzero;stroke:none"
       transform="matrix(1.3333333,0,0,-1.3333333,1685.4489,1053.3728)"
       clip-path="url(#clipPath13)" />
    <path
       id="path14"
       d="M 0,0 C -18.314,0 -34.342,9.615 -41.209,15.568 -43.497,13.276 -47.617,6.408 -48.531,0 h -8.7 v 63.181 h 9.154 c 3.667,-30.217 24.723,-48.072 51.738,-48.072 14.649,0 26.556,8.241 26.556,21.975 0,11.902 -10.534,21.063 -29.303,29.758 l -26.096,12.362 c -18.315,8.705 -32.049,23.814 -32.049,43.956 0,21.976 20.602,40.746 48.99,40.746 15.109,0 27.924,-5.495 35.711,-11.902 2.287,1.833 4.575,6.873 5.954,12.366 h 8.695 v -54.031 h -9.615 c -3.206,21.522 -15.108,39.377 -39.371,39.377 -12.821,0 -24.728,-7.327 -24.728,-18.774 0,-11.902 9.615,-18.31 31.595,-28.384 L 25.177,90.197 C 47.158,79.668 55.853,62.721 55.853,48.986 55.853,20.143 30.671,0 0,0"
       style="fill:#32373c;fill-opacity:1;fill-rule:nonzero;stroke:none"
       transform="matrix(1.3333333,0,0,-1.3333333,2132.8984,1165.0909)"
       clip-path="url(#clipPath15)" />
    <path
       id="path16"
       d="M 0,0 C -18.315,0 -34.342,9.615 -41.209,15.568 -43.497,13.276 -47.617,6.408 -48.531,0 h -8.701 v 63.181 h 9.155 c 3.667,-30.217 24.723,-48.072 51.738,-48.072 14.649,0 26.556,8.241 26.556,21.975 0,11.902 -10.534,21.063 -29.303,29.758 l -26.096,12.362 c -18.315,8.705 -32.05,23.814 -32.05,43.956 0,21.976 20.602,40.746 48.991,40.746 15.109,0 27.924,-5.495 35.71,-11.902 2.288,1.833 4.576,6.873 5.949,12.366 h 8.701 v -54.031 h -9.615 c -3.207,21.522 -15.108,39.377 -39.371,39.377 -12.821,0 -24.728,-7.327 -24.728,-18.774 0,-11.902 9.614,-18.31 31.595,-28.384 L 25.177,90.197 C 47.158,79.668 55.853,62.721 55.853,48.986 55.853,20.143 30.671,0 0,0"
       style="fill:#32373c;fill-opacity:1;fill-rule:nonzero;stroke:none"
       transform="matrix(1.3333333,0,0,-1.3333333,2317.4831,1165.0909)"
       clip-path="url(#clipPath17)" />
    <path
       id="path18"
       d="m 0,0 c -113.788,0 -206.032,-92.245 -206.032,-206.035 0,-113.789 92.244,-206.034 206.032,-206.034 113.788,0 206.032,92.245 206.032,206.034 C 206.032,-92.245 113.788,0 0,0 m 0,-12.362 c 26.151,0 51.513,-5.119 75.381,-15.215 11.474,-4.853 22.54,-10.86 32.893,-17.854 10.258,-6.93 19.905,-14.889 28.672,-23.657 8.767,-8.767 16.726,-18.413 23.656,-28.671 6.994,-10.353 13.001,-21.42 17.854,-32.893 10.095,-23.869 15.214,-49.232 15.214,-75.383 0,-26.151 -5.119,-51.513 -15.214,-75.382 -4.853,-11.473 -10.86,-22.54 -17.854,-32.893 -6.93,-10.258 -14.889,-19.905 -23.656,-28.672 -8.767,-8.767 -18.414,-16.726 -28.672,-23.656 -10.353,-6.994 -21.419,-13.002 -32.893,-17.854 -23.868,-10.096 -49.23,-15.215 -75.381,-15.215 -26.151,0 -51.513,5.119 -75.381,15.215 -11.473,4.852 -22.54,10.86 -32.893,17.854 -10.258,6.93 -19.904,14.889 -28.671,23.656 -8.767,8.767 -16.727,18.414 -23.657,28.672 -6.994,10.353 -13.001,21.42 -17.854,32.893 -10.095,23.869 -15.214,49.231 -15.214,75.382 0,26.151 5.119,51.514 15.214,75.383 4.853,11.473 10.86,22.54 17.854,32.893 6.93,10.258 14.89,19.904 23.657,28.671 8.767,8.768 18.413,16.727 28.671,23.657 10.353,6.994 21.42,13.001 32.893,17.854 23.868,10.096 49.23,15.215 75.381,15.215"
       style="fill:#32373c;fill-opacity:1;fill-rule:nonzero;stroke:none"
       transform="matrix(1.3333333,0,0,-1.3333333,1333.3332,274.7072)"
       clip-path="url(#clipPath19)" />
    <path
       id="path20"
       d="m 0,0 c 0.737,-5.468 1.154,-11.334 1.154,-17.654 0,-17.416 -3.263,-37.002 -13.06,-61.495 l -52.439,-151.619 c 51.045,29.759 85.372,85.06 85.372,148.401 C 21.027,-52.516 13.399,-24.453 0,0 m -147.65,-97.385 -51.522,-149.688 c 15.386,-4.527 31.654,-6.996 48.506,-6.996 19.993,0 39.174,3.451 57.018,9.735 -0.459,0.735 -0.883,1.514 -1.232,2.366 z m 112.891,23.677 c 0,21.226 -7.624,35.917 -14.154,47.35 -8.704,14.15 -16.866,26.121 -16.866,40.27 0,15.78 11.967,30.471 28.832,30.471 0.762,0 1.484,-0.092 2.223,-0.139 -30.546,27.989 -71.245,45.078 -115.942,45.078 -59.986,0 -112.754,-30.778 -143.455,-77.385 4.031,-0.127 7.829,-0.208 11.05,-0.208 17.954,0 45.76,2.183 45.76,2.183 9.251,0.542 10.344,-13.056 1.098,-14.149 0,0 -9.304,-1.09 -19.649,-1.632 l 62.521,-185.977 37.578,112.686 -26.748,73.291 c -9.25,0.542 -18.008,1.632 -18.008,1.632 -9.255,0.546 -8.17,14.691 1.089,14.149 0,0 28.348,-2.183 45.218,-2.183 17.955,0 45.765,2.183 45.765,2.183 9.255,0.542 10.344,-13.056 1.094,-14.149 0,0 -9.314,-1.09 -19.649,-1.632 l 62.048,-184.561 17.712,56.125 c 7.869,24.528 12.483,41.906 12.483,56.597 m -287.601,-8.659 c 0,-67.957 39.49,-126.691 96.769,-154.519 l -81.902,224.393 c -9.527,-21.351 -14.867,-44.981 -14.867,-69.874"
       style="fill:#32373c;fill-opacity:1;fill-rule:nonzero;stroke:none"
       transform="matrix(1.3333333,0,0,-1.3333333,1534.2221,439.58907)"
       clip-path="url(#clipPath21)" />
  </g>
  <g
     id="layer-MC4" />
</svg>
