<?xml version="1.0" encoding="UTF-8" standalone="no"?>
<!-- Created with Inkscape (http://www.inkscape.org/) -->

<svg
   width="128mm"
   height="128mm"
   viewBox="0 0 128 128"
   version="1.1"
   id="svg1"
   xml:space="preserve"
   inkscape:version="1.4 (86a8ad7, 2024-10-11)"
   sodipodi:docname="wp-wmark.svg"
   xmlns:inkscape="http://www.inkscape.org/namespaces/inkscape"
   xmlns:sodipodi="http://sodipodi.sourceforge.net/DTD/sodipodi-0.dtd"
   xmlns="http://www.w3.org/2000/svg"
   xmlns:svg="http://www.w3.org/2000/svg"><sodipodi:namedview
     id="namedview1"
     pagecolor="#ffffff"
     bordercolor="#000000"
     borderopacity="0.25"
     inkscape:showpageshadow="2"
     inkscape:pageopacity="0.0"
     inkscape:pagecheckerboard="0"
     inkscape:deskcolor="#d1d1d1"
     inkscape:document-units="mm"
     inkscape:zoom="0.98646753"
     inkscape:cx="47.644751"
     inkscape:cy="280.29306"
     inkscape:window-width="1920"
     inkscape:window-height="1001"
     inkscape:window-x="-9"
     inkscape:window-y="-9"
     inkscape:window-maximized="1"
     inkscape:current-layer="layer1" /><defs
     id="defs1" /><g
     inkscape:label="Calque 1"
     inkscape:groupmode="layer"
     id="layer1"
     style="display:inline"
     transform="translate(-14.377993,-10.408729)"><g
       id="g39"
       transform="matrix(0.17642343,0,0,0.17642343,-9.833722,-13.809119)"><path
         d="M 0,0 C 1.3640144,-0.00101212 1.3640144,-0.00101212 2.7555847,-0.00204468 48.376059,0.05155398 92.109754,10.787303 132.4375,32.25 c 0.71076,0.372056 1.42151,0.744111 2.15381,1.127441 17.11894,8.995589 32.31986,20.042721 47.125,32.442383 1.15871,0.962798 2.32866,1.912205 3.50879,2.848633 1.43923,1.151298 2.83102,2.361434 4.2124,3.581543 0,0.66 0,1.32 0,2 -1.30711,0.02127 -1.30711,0.02127 -2.64063,0.04297 -14.23592,0.570053 -25.17788,5.262781 -34.98437,15.582031 -9.68191,11.587269 -12.3823,24.624699 -11.56152,39.313959 1.71766,18.97976 13.09769,35.98146 22.79394,51.7837 23.6068,38.60522 32.29513,77.56829 21.81861,122.16235 -0.62324,2.5625 -1.25188,5.12286 -1.89087,7.6814 -0.2568,1.03079 -0.2568,1.03079 -0.51879,2.08241 -3.98971,15.9132 -8.85946,31.52003 -13.8695,47.13625 -1.21291,3.7872 -2.41542,7.57769 -3.61855,11.36801 -1.45533,4.58361 -2.91116,9.16706 -4.37155,13.74907 -2.99792,9.41073 -5.94891,18.83442 -8.85599,28.27363 -0.35224,1.14105 -0.70448,2.28211 -1.0674,3.45773 -1.97134,6.38679 -1.97134,6.38679 -3.92872,12.77787 -0.86055,2.81939 -1.73004,5.63588 -2.60154,8.4519 -0.37187,1.23367 -0.37187,1.23367 -0.75126,2.49227 -0.59255,1.90057 -1.26413,3.77621 -1.95186,5.64445 -0.66,0.33 -1.32,0.66 -2,1 -7.78118,-22.62891 -15.45305,-45.29184 -23,-68 C 111.31314,363.83195 106.1574,348.42714 100.875,333.0625 93.808363,312.5054 86.966244,291.8738 80.105061,271.24749 73.736161,252.10196 67.366345,232.95824 60.8125,213.875 56.19391,200.41752 51.614717,186.94747 47.09552,173.45624 c -0.682366,-2.03533 -1.366297,-4.07013 -2.05188,-6.10437 -0.94345,-2.80073 -1.881069,-5.60334 -2.817078,-8.40656 -0.283573,-0.83841 -0.567147,-1.67683 -0.859313,-2.54065 C 39.4375,150.59308 39.4375,150.59308 39.4375,147.25 c 0.932717,-0.0752 1.865435,-0.15034 2.826416,-0.22778 3.487908,-0.28685 6.974563,-0.58444 10.460938,-0.88916 1.503871,-0.12927 3.008109,-0.25434 4.512695,-0.375 2.173239,-0.17504 4.344676,-0.36553 6.516357,-0.55884 1.303968,-0.10997 2.607935,-0.21995 3.951416,-0.33325 4.514295,-0.74505 9.287535,-1.70544 12.173584,-5.52222 0.630218,-2.36222 0.725353,-4.15944 0.496094,-6.59375 -0.07928,-1.12922 -0.07928,-1.12922 -0.160156,-2.28125 -1.145701,-3.27014 -2.900452,-4.3408 -5.777344,-6.21875 -3.300177,-0.52163 -3.300177,-0.52163 -6.878906,-0.3125 -0.658031,0.0162 -1.316063,0.0324 -1.994034,0.0491 -6.347275,0.18677 -12.681048,0.65721 -19.013046,1.11902 -33.845284,2.38242 -68.271717,2.33997 -102.110108,-0.14368 -3.667041,-0.26806 -7.332892,-0.50537 -11.003906,-0.71191 -0.697061,-0.0408 -1.394121,-0.0815 -2.112305,-0.12354 -2.170854,-0.11361 -4.339859,-0.18763 -6.512695,-0.25146 -1.937461,-0.0735 -1.937461,-0.0735 -3.914062,-0.14844 -4.37246,0.6613 -5.763411,2.09753 -8.460938,5.52344 -1.055934,3.37899 -1.200543,5.28139 -0.25,8.6875 1.267217,2.34435 2.18861,3.64506 4.25,5.3125 10.787151,2.9691 22.886737,3.01965 34,4 8.445369,21.74279 16.368156,43.67627 24.266846,65.62207 5.682584,15.79497 5.682584,15.79497 11.569091,31.51465 0.533259,1.40566 1.066465,2.81134 1.59961,4.21704 0.917582,2.41651 1.855674,4.82092 2.8085936,7.22412 0.5868457,1.54313 0.5868457,1.54313 1.1855469,3.11743 0.332417,0.84579 0.664834,1.69157 1.0073242,2.56299 1.2861927,6.26364 -0.7823003,12.50831 -2.7971344,18.42334 -0.3626763,1.09444 -0.3626763,1.09444 -0.7326793,2.21098 -0.805152,2.42364 -1.620913,4.84357 -2.436739,7.26363 -0.582066,1.74479 -1.163469,3.48979 -1.744263,5.235 -1.57376,4.72271 -3.156735,9.44229 -4.741406,14.16135 -1.65631,4.93762 -3.304094,9.87808 -4.952792,14.81825 -3.121184,9.34803 -6.250005,18.69348 -9.38159,28.03802 -3.565742,10.64129 -7.12294,21.28543 -10.679431,31.92982 -7.314171,21.89028 -14.63904,43.77697 -21.970977,65.66131 -0.66,0 -1.32,0 -2,0 -0.411372,-1.23935 -0.822744,-2.47871 -1.246582,-3.75562 -6.946526,-20.91986 -13.898102,-41.83664 -21.065918,-62.68188 -4.768409,-13.87155 -9.43842,-27.77509 -14.07422,-41.69141 -0.43238,-1.2979 -0.43238,-1.2979 -0.8735,-2.62203 -2.93195,-8.80252 -5.86065,-17.60612 -8.78456,-26.41132 -5.88792,-17.72847 -11.82266,-35.43882 -17.87709,-53.11118 -6.76305,-19.74122 -13.39591,-39.5246 -19.98731,-59.32373 -1.56445,-4.6992 -3.13172,-9.39746 -4.69969,-14.09549 -1.22957,-3.6851 -2.45771,-7.37067 -3.68542,-11.05639 -0.57845,-1.736 -1.15733,-3.47186 -1.73668,-5.20756 -0.7994,-2.39565 -1.59687,-4.79194 -2.39383,-7.18841 -0.23264,-0.69588 -0.46528,-1.39176 -0.70496,-2.10873 -1.40161,-4.22295 -2.6755,-8.46158 -3.87024,-12.74625 0.96825,-0.0752 1.93649,-0.15034 2.93408,-0.22778 3.6129,-0.28382 7.22429,-0.58407 10.83545,-0.88916 1.55921,-0.12945 3.11879,-0.25452 4.67871,-0.375 2.25016,-0.17458 4.49848,-0.36521 6.74707,-0.55884 0.69087,-0.0501 1.38174,-0.10028 2.09354,-0.15193 4.49779,-0.40763 7.86543,-1.423 11.71115,-3.79729 2.01472,-3.02207 2.33719,-3.91727 2.4375,-7.375 0.0599,-1.12535 0.0599,-1.12535 0.12109,-2.27344 -0.85781,-3.61119 -2.71211,-5.03796 -5.55859,-7.35156 -3.50431,-0.64329 -3.50431,-0.64329 -7.33984,-0.375 -1.05441,0.0311 -1.05441,0.0311 -2.13012,0.0627 -2.17928,0.0738 -4.35318,0.18668 -6.53004,0.31226 -1.26215,0.0683 -2.52431,0.13664 -3.82471,0.20703 -3.22164,0.19844 -6.44093,0.41862 -9.66049,0.64801 -22.81915,1.59237 -45.65384,1.33798 -68.5148,1.14496 9.48914,-16.81295 22.71558,-31.115661 36,-45 1.35352,-1.417324 1.35352,-1.417324 2.73438,-2.863281 5.73074,-5.867622 11.83511,-11.055089 18.26562,-16.136719 1.07123,-0.872572 2.14151,-1.746312 3.21094,-2.621094 C -123.1093,20.499383 -61.813329,0.04127838 0,0 Z"
         fill="#ffffff"
         transform="translate(498.5625,221.75)"
         id="path1" /><path
         d="M 0,0 C 0.804375,0.73347656 1.60875,1.4669531 2.4375,2.2226563 3.983586,3.6237967 5.5455118,5.0077179 7.125,6.3710937 18.804604,16.533117 29.290467,28.188219 38.8125,40.375 c 0.773437,0.966797 1.546875,1.933594 2.34375,2.929687 C 52.321564,57.47333 61.963764,72.671088 70.8125,88.375 c 0.371895,0.651943 0.743789,1.303887 1.126953,1.975586 17.513495,30.903444 28.531697,65.193894 34.873047,100.024414 0.16581,0.90218 0.33161,1.80437 0.50244,2.73389 15.28234,85.50557 -5.59543,175.94393 -54.838378,247.14502 C 44.060281,452.18735 34.799991,463.21418 24.964844,474 c -1.401141,1.54609 -2.785062,3.10801 -4.148438,4.6875 -10.162023,11.6796 -21.8171245,22.16547 -34.003906,31.6875 -0.966797,0.77344 -1.933594,1.54687 -2.929687,2.34375 -14.168643,11.16531 -29.366401,20.80751 -45.070313,29.65625 -0.651943,0.37189 -1.303887,0.74379 -1.975586,1.12695 -30.903442,17.5135 -65.193894,28.5317 -100.024414,34.87305 -0.90218,0.16581 -1.80437,0.33161 -2.73389,0.50244 -85.50557,15.28234 -175.94393,-5.59543 -247.14502,-54.83838 -11.93344,-8.41628 -22.96027,-17.67657 -33.74609,-27.51172 -1.54609,-1.40114 -3.10801,-2.78506 -4.6875,-4.14843 -11.6796,-10.16203 -22.16547,-21.81713 -31.6875,-34.00391 -0.77344,-0.9668 -1.54687,-1.93359 -2.34375,-2.92969 -11.16531,-14.16864 -20.80751,-29.3664 -29.65625,-45.07031 -0.37189,-0.65194 -0.74379,-1.30389 -1.12695,-1.97559 -17.5135,-30.90344 -28.5317,-65.19389 -34.87305,-100.02441 -0.16581,-0.90218 -0.33161,-1.80437 -0.50244,-2.73389 -15.28234,-85.50557 5.59543,-175.94393 54.83838,-247.145016 8.41628,-11.933441 17.67657,-22.960274 27.51172,-33.746094 1.40114,-1.546086 2.78506,-3.108012 4.14843,-4.6875 10.16203,-11.6796038 21.81713,-22.1654667 34.00391,-31.6875 0.9668,-0.773438 1.93359,-1.546875 2.92969,-2.34375 14.16864,-11.165314 29.3664,-20.807514 45.07031,-29.65625 0.65194,-0.371895 1.30389,-0.743789 1.97559,-1.126953 30.90344,-17.513495 65.19389,-28.531696 100.02441,-34.873047 0.90218,-0.165806 1.80437,-0.331611 2.73389,-0.502441 C -185.71325,-96.702845 -83.378226,-70.993397 0,0 Z m -293.1875,-55.625 c -0.94569,0.214951 -1.89138,0.429902 -2.86572,0.651367 -57.46876,13.21416 -118.37726,46.4132151 -156.49756,92.407227 -1.95634,2.320524 -4.04921,4.488112 -6.13672,6.691406 -34.9582,38.416774 -58.00522,88.01031 -69.5,138.25 -0.20851,0.89284 -0.41701,1.78567 -0.63184,2.70557 -10.0874,44.11752 -8.66929,91.40042 1.63184,135.29443 0.32243,1.41853 0.32243,1.41853 0.65137,2.86572 13.21416,57.46876 46.41321,118.37726 92.40722,156.49756 2.32053,1.95634 4.48812,4.04921 6.69141,6.13672 38.41677,34.9582 88.01031,58.00522 138.25,69.5 1.33926,0.31276 1.33926,0.31276 2.70557,0.63184 44.11752,10.0874 91.40042,8.66929 135.29443,-1.63184 1.41853,-0.32243 1.41853,-0.32243 2.86572,-0.65137 57.468757,-13.21416 118.377263,-46.41321 156.4975613,-92.40722 1.9563377,-2.32053 4.0492077,-4.48812 6.1367187,-6.69141 34.9582,-38.41677 58.005222,-88.01031 69.5,-138.25 0.312759,-1.33926 0.312759,-1.33926 0.631836,-2.70557 C 94.531743,269.55191 93.113629,222.26901 82.8125,178.375 82.597549,177.42931 82.382598,176.48362 82.161133,175.50928 68.946973,118.04052 35.747918,57.132017 -10.246094,19.011719 -12.566618,17.055381 -14.734206,14.962511 -16.9375,12.875 c -38.416774,-34.9582 -88.01031,-58.005222 -138.25,-69.5 -0.89284,-0.208506 -1.78567,-0.417012 -2.70557,-0.631836 -44.11752,-10.087407 -91.40042,-8.669293 -135.29443,1.631836 z"
         fill="#ffffff"
         transform="translate(722.1875,250.625)"
         id="path2" /><path
         d="M 0,0 C 0.66,0 1.32,0 2,0 2.3246851,0.90008034 2.3246851,0.90008034 2.6559296,1.8183441 5.4968805,9.6924465 8.3410939,17.565368 11.1875,25.4375 c 0.234097,0.647452 0.468194,1.294904 0.709385,1.961975 C 19.090552,47.29241 26.354548,67.157905 33.6875,87 c 6.579701,17.80525 13.091015,35.63257 19.5,53.5 6.084355,16.96031 12.22579,33.89839 18.4375,50.8125 0.366366,0.99886 0.732731,1.99772 1.110199,3.02686 4.170115,11.3649 8.388838,22.7078 12.75885,33.99763 0.3144,0.81716 0.628801,1.63432 0.952728,2.47624 0.276615,0.71444 0.55323,1.42888 0.838227,2.16497 0.703541,1.98941 1.238779,3.96727 1.714996,6.0218 -54.500852,17.73892 -116.906789,22.97367 -172,4 2.593334,-10.5426 6.224884,-20.74325 9.75,-31 0.671542,-1.96202 1.342926,-3.9241 2.01416,-5.88623 4.788504,-13.97913 9.650415,-27.93223 14.535278,-41.87793 5.524812,-15.77773 10.91904,-31.59793 16.283021,-47.43097 5.192565,-15.32207 10.466304,-30.612992 15.820434,-45.879302 6.19764,-17.678765 12.228514,-35.413045 18.2279664,-53.159943 0.5272819,-1.557442 0.5272819,-1.557442 1.065216,-3.146347 0.6618403,-1.95526 1.3224425,-3.91094 1.9816285,-5.867096 C -3.02983,7.888354 -2.7373639,7.0245261 -2.4360352,6.1345215 -2.1814957,5.3804149 -1.9269562,4.6263083 -1.6647034,3.84935 -1,2 -1,2 0,0 Z"
         fill="#ffffff"
         transform="translate(504,524)"
         id="path3" /><path
         d="m 0,0 c 0.66,0 1.32,0 2,0 5.4347873,13.680363 10.486079,27.487832 15.471375,41.337494 2.325732,6.459774 4.659506,12.91664 6.993469,19.373443 0.353761,0.978934 0.353761,0.978934 0.714668,1.977644 4.523268,12.515089 9.097001,25.011281 13.695488,37.498919 6.798934,18.46895 13.566208,36.94927 20.3125,55.4375 0.487935,1.33711 0.97587,2.67421 1.463806,4.01132 1.969507,5.39724 3.93884,10.79454 5.907898,16.19194 3.402246,9.32591 6.805761,18.65136 10.210327,27.97643 0.23673,0.64841 0.47346,1.29682 0.717364,1.96488 2.38596,6.53519 4.772066,13.07034 7.158309,19.60543 1.193829,3.26951 2.387606,6.53905 3.581358,9.80859 0.236487,0.64771 0.472974,1.29541 0.716628,1.96274 3.176347,8.69978 6.350555,17.40034 9.522951,26.10156 1.735779,4.76089 3.472089,9.52158 5.208599,14.2822 1.21492,3.33072 2.42966,6.66152 3.64389,9.99249 4.93262,13.5304 9.88288,27.05377 14.90403,40.55164 0.40569,1.09176 0.81138,2.18352 1.22937,3.30836 1.88488,5.07102 3.7748,10.14005 5.67443,15.20555 0.65463,1.75702 1.3091,3.5141 1.96338,5.27124 0.29875,0.79046 0.59749,1.58091 0.90529,2.39531 C 133.12577,357.30279 134,359.72092 134,363 98.173226,355.23245 59.602151,315.92088 38,288 37.20207,286.99582 36.404141,285.99164 35.582031,284.95703 25.416774,272.0846 16.73156,258.45605 9,244 8.6679053,243.38641 8.3358106,242.77281 7.9936523,242.14062 -4.8676808,218.19591 -13.569576,192.30678 -18.8125,165.6875 c -0.195051,-0.98799 -0.390103,-1.97597 -0.591064,-2.9939 -2.990764,-16.18073 -3.981233,-32.32772 -3.908936,-48.7561 0.0032,-1.33554 0.0032,-1.33554 0.0065,-2.69806 C -23.155546,72.290181 -14.505325,35.989626 0,0 Z"
         fill="#ffffff"
         transform="translate(245,387)"
         id="path4" /><path
         d="M 0,0 C 24.483054,21.872958 32.223649,78.711873 34.819092,109.71069 36.100071,133.0017 36.151928,157.01396 32,180 c -0.193359,1.09312 -0.386719,2.18625 -0.585938,3.3125 C 26.994717,207.53706 19.709523,230.81792 9,253 8.6927197,253.65404 8.3854395,254.30808 8.0688477,254.98193 -2.8458061,278.21233 -17.155194,298.72688 -34,318 c -1.104082,1.2723 -1.104082,1.2723 -2.230469,2.57031 C -45.699869,331.29885 -55.733796,341.16608 -67,350 c -1.212363,0.9958 -1.212363,0.9958 -2.449219,2.01172 C -79.993387,360.6542 -91.33326,367.99232 -103,375 c -1,-2 -1,-2 -0.61377,-3.73546 0.24122,-0.70081 0.48243,-1.40162 0.73096,-2.12367 0.27262,-0.80384 0.54524,-1.60767 0.82612,-2.43587 0.46119,-1.32157 0.46119,-1.32157 0.93169,-2.66984 0.31531,-0.92218 0.63062,-1.84436 0.95549,-2.79448 1.049177,-3.06197 2.109249,-6.12004 3.16951,-9.17818 0.740546,-2.15329 1.480529,-4.30678 2.219971,-6.46045 5.21235,-15.15867 10.490337,-30.29479 15.786621,-45.42432 5.260025,-15.03238 10.451177,-30.08823 15.629757,-45.14883 2.025734,-5.89129 4.052054,-11.78238 6.078495,-17.67343 0.222263,-0.64616 0.444526,-1.29232 0.673525,-1.95806 9.848773,-28.63012 19.758044,-57.23954 29.715482,-85.83204 0.634299,-1.82146 1.268276,-3.64303 1.901917,-5.46472 3.232806,-9.29073 6.508996,-18.55862 9.924896,-27.78376 C -4.9841384,88.989403 1.2189276,60.487661 1.1303711,31.287842 1.125036,29.201585 1.1303335,27.115547 1.1367187,25.029297 1.1404342,16.648313 0.78674436,8.34863 0,0 Z"
         fill="#ffffff"
         transform="translate(743,366)"
         id="path5" /></g></g></svg>
